<svg width="41" height="41" fill="none" xmlns="http://www.w3.org/2000/svg"><path d="M20.5 1.5375c10.455 0 18.9625 8.5075 18.9625 18.9625 0 10.455-8.5075 18.9625-18.9625 18.9625-10.455 0-18.9625-8.5075-18.9625-18.9625 0-10.455 8.5075-18.9625 18.9625-18.9625zM20.5 0C9.17375 0 0 9.17375 0 20.5 0 31.8263 9.17375 41 20.5 41 31.8263 41 41 31.8263 41 20.5 41 9.17375 31.8263 0 20.5 0z" fill="#fff"/><path d="M17.7831 27.0086l9.7375-5.6375c.3075-.205.5125-.5125.5125-.8712 0-.3588-.205-.7175-.5125-.8713l-9.7375-5.6375c-.3075-.205-.7175-.205-1.025 0-.3075.205-.5125.5125-.5125.8713v11.275c0 .3587.205.7175.5125.8712.3075.1538.6663.205 1.025 0z" fill="#fff"/></svg>